<svg version="1.1" id="Layer_1" xmlns="http://www.w3.org/2000/svg" xmlns:xlink="http://www.w3.org/1999/xlink" x="0px" y="0px"
	 width="100%" viewBox="0 0 512 512" enable-background="new 0 0 512 512" xml:space="preserve">
<path fill="#000000" opacity="1.000000" stroke="none" 
	d="
M513.000000,196.000000 
	C513.000000,301.974243 513.000000,407.448486 513.000000,512.961365 
	C342.400757,512.961365 171.801483,512.961365 1.101111,512.961365 
	C1.101111,342.442444 1.101111,171.884827 1.101111,1.163595 
	C171.666534,1.163595 342.333252,1.163595 513.000000,1.163595 
	C513.000000,65.865143 513.000000,130.682571 513.000000,196.000000 
M3.376963,190.499817 
	C3.377624,294.808350 3.376989,399.116913 3.381858,503.425446 
	C3.382183,510.380096 3.620770,510.625702 10.261474,510.625641 
	C173.389847,510.624115 336.518219,510.621887 499.646606,510.608215 
	C511.313110,510.607239 510.613922,511.744354 510.614227,499.428009 
	C510.618408,336.799500 510.618958,174.171021 510.619812,11.542525 
	C510.619843,3.454911 510.617432,3.436954 502.620880,3.436332 
	C338.492767,3.423558 174.364639,3.414724 10.236515,3.407574 
	C3.513328,3.407281 3.333931,3.601891 3.335487,10.541944 
	C3.348860,70.194557 3.363024,129.847168 3.376963,190.499817 
z"/>
<path fill="#000000" opacity="1.000000" stroke="none" 
	d="
M305.347900,137.715546 
	C285.032867,129.658401 264.229584,127.190338 242.880661,127.318535 
	C203.396713,127.555618 163.910278,127.373314 124.424889,127.373589 
	C117.490700,127.373634 117.514648,127.539253 117.220512,134.309296 
	C117.063026,137.933975 119.020210,142.649826 114.784081,144.793442 
	C110.904892,146.756439 108.037849,142.854080 105.077873,141.016769 
	C91.644012,132.678116 78.314987,124.168167 65.029999,115.593201 
	C59.246124,111.859924 59.270840,109.324196 64.850929,105.748672 
	C79.294174,96.493996 93.747215,87.254356 108.235573,78.070602 
	C110.280792,76.774193 112.423347,74.804047 115.080780,76.300285 
	C117.675941,77.761452 117.303238,80.535156 117.341522,83.022972 
	C117.504707,93.628273 117.503029,93.630463 128.125916,93.631325 
	C169.443970,93.634682 210.762360,93.537117 252.080002,93.667137 
	C292.834625,93.795380 329.330475,106.392899 360.784363,132.415970 
	C392.133240,158.352158 411.850891,191.435150 418.153687,231.764450 
	C425.565186,279.188110 413.489502,321.736053 384.186798,359.593353 
	C379.302002,365.904205 373.163452,368.721527 365.432007,367.139557 
	C359.270203,365.878723 355.110352,361.894501 353.312531,355.767670 
	C351.354248,349.093994 353.443359,343.398010 357.621490,338.131439 
	C367.542419,325.626007 375.273193,311.909851 379.941467,296.580505 
	C393.224487,252.962784 385.874268,213.098297 357.808136,177.194641 
	C343.973969,159.497253 326.098663,146.961639 305.347900,137.715546 
z"/>
<path fill="#000000" opacity="1.000000" stroke="none" 
	d="
M446.604858,409.661560 
	C432.534576,418.626587 418.800323,427.437683 404.997925,436.140686 
	C399.253632,439.762665 396.760376,438.386871 396.675690,431.630585 
	C396.526184,419.700653 398.313629,420.354980 384.797546,420.356171 
	C343.809418,420.359741 302.820892,420.463776 261.833344,420.312042 
	C231.808914,420.200897 203.404373,413.305878 177.344162,398.179443 
	C135.278091,373.762482 108.017456,337.913910 97.256027,290.412689 
	C90.020416,258.474518 93.121185,226.996429 105.246277,196.437225 
	C111.636024,180.332947 120.261871,165.608002 131.441437,152.435608 
	C140.357849,141.929794 156.299652,145.170639 160.628448,158.234406 
	C162.777390,164.719604 160.477203,170.368301 156.500259,175.436630 
	C148.643692,185.449249 142.104050,196.197495 137.222534,207.991608 
	C116.421883,258.247681 130.217133,316.405060 170.990158,352.274231 
	C192.057938,370.808167 216.353088,381.653625 243.942490,385.418365 
	C250.191406,386.271057 256.559875,386.554016 262.874573,386.568634 
	C305.028778,386.666138 347.183380,386.622986 389.337830,386.617065 
	C396.488983,386.616089 396.473602,386.455841 396.721741,379.347168 
	C396.843079,375.870209 395.005768,371.412231 398.976776,369.254120 
	C402.945038,367.097412 405.737915,371.004639 408.690125,372.836945 
	C421.558716,380.823761 434.301117,389.013947 447.089172,397.130524 
	C455.200378,402.278748 455.173737,404.139221 446.604858,409.661560 
z"/>
<path fill="#000000" opacity="1.000000" stroke="none" 
	d="
M213.499680,349.645020 
	C174.903000,330.787231 151.990952,292.608124 154.913101,250.096268 
	C158.420624,199.068024 197.762939,161.349106 244.535767,155.481308 
	C294.401642,149.225479 344.963104,181.257980 356.780762,234.849350 
	C364.112122,268.095734 356.357605,298.340851 333.831818,324.182007 
	C312.501709,348.651459 285.157440,360.011780 252.866623,359.230408 
	C239.277069,358.901581 226.230270,355.511536 213.499680,349.645020 
M173.016510,300.539001 
	C193.539291,339.008606 235.936813,358.763184 277.834778,349.377747 
	C344.694641,334.400635 374.086578,253.412521 332.185822,199.615906 
	C296.778351,154.156052 231.230148,149.594421 190.339554,189.744522 
	C161.182495,218.373581 154.131149,262.350830 173.016510,300.539001 
z"/>
<path fill="#000000" opacity="1.000000" stroke="none" 
	d="
M240.665741,212.390930 
	C242.650681,201.856094 249.169800,196.709213 258.891785,197.556412 
	C267.858154,198.337738 273.306061,204.702835 273.348083,214.664291 
	C273.406403,228.488968 273.318695,242.314270 273.375763,256.138947 
	C273.396912,261.262238 271.614868,265.497437 267.988129,269.100708 
	C258.062775,278.961945 248.265442,288.952667 238.293640,298.766296 
	C231.024155,305.920471 221.606537,305.992523 214.740936,299.194977 
	C208.141953,292.661377 207.984344,283.084290 214.780411,275.919159 
	C221.998291,268.309357 229.488861,260.953339 236.996384,253.625885 
	C239.555496,251.128128 240.759689,248.474106 240.695892,244.824585 
	C240.509583,234.167862 240.644653,223.505508 240.665741,212.390930 
z"/>
</svg>